<?xml version="1.0" encoding="UTF-8"?>
<svg width="48px" height="48px" viewBox="0 0 48 48" version="1.1" xmlns="http://www.w3.org/2000/svg" xmlns:xlink="http://www.w3.org/1999/xlink">
    <!-- Generator: Sketch 63.1 (92452) - https://sketch.com -->
    <title>Behance</title>
    <desc>Created with Sketch.</desc>
    <g id="Behance" stroke="none" stroke-width="1" fill="none" fill-rule="evenodd">
        <g id="behance">
            <path d="M24,0 C37.25625,0 48,10.74375 48,24 C48,37.25625 37.25625,48 24,48 C10.74375,48 0,37.25625 0,24 C0,10.74375 10.74375,0 24,0 Z M31.8375,19.171875 C29.878125,19.171875 28.29375,19.790625 27.065625,21.01875 C25.8375,22.25625 25.228125,24.028125 25.228125,26.334375 C25.228125,28.8 25.903125,30.58125 27.2625,31.678125 C28.621875,32.775 30.1875,33.31875 31.959375,33.31875 C34.10625,33.31875 35.784375,32.671875 36.984375,31.36875 C37.753125,30.553125 38.184375,29.746875 38.278125,28.959375 L38.278125,28.959375 L34.715625,28.959375 L34.6094184,29.1485243 C34.4273437,29.4510417 34.2203125,29.690625 33.99375,29.878125 C33.496875,30.28125 32.85,30.4875 32.053125,30.4875 C31.303125,30.4875 30.665625,30.31875 30.13125,29.98125 C29.25,29.446875 28.790625,28.5 28.734375,27.16875 L28.734375,27.16875 L38.45625,27.16875 L38.4601875,26.8335094 C38.4669375,25.8514687 38.428125,25.0828125 38.34375,24.534375 C38.184375,23.484375 37.828125,22.565625 37.284375,21.778125 C36.675,20.878125 35.90625,20.221875 34.978125,19.8 C34.05,19.378125 33,19.171875 31.8375,19.171875 Z M18.13125,14.821875 L9.4125,14.821875 L9.4125,32.86875 L17.540625,32.86875 L17.9938368,32.8617622 C18.7390625,32.8385417 19.434375,32.7578125 20.090625,32.625 C20.86875,32.465625 21.553125,32.15625 22.125,31.715625 C22.640625,31.33125 23.0625,30.8625 23.4,30.3 C23.934375,29.446875 24.20625,28.490625 24.20625,27.421875 C24.20625,26.38125 23.971875,25.5 23.503125,24.778125 C23.034375,24.05625 22.340625,23.521875 21.421875,23.184375 C22.03125,22.875 22.490625,22.528125 22.8,22.153125 C23.353125,21.4875 23.634375,20.596875 23.634375,19.5 C23.634375,18.43125 23.3625,17.5125 22.809375,16.74375 C21.890625,15.496875 20.334375,14.85 18.13125,14.821875 L18.13125,14.821875 Z M17.446875,24.928125 C18.225,24.9375 18.825,25.040625 19.246875,25.2375 C20.015625,25.584375 20.4,26.23125 20.4,27.16875 C20.4,28.275 20.00625,29.025 19.209375,29.41875 C18.778125,29.634375 18.16875,29.7375 17.38125,29.7375 L17.38125,29.7375 L13.003125,29.7375 L13.003125,24.928125 Z M31.8375,22.059375 C32.6625,22.059375 33.346875,22.303125 33.909375,22.78125 C34.4625,23.259375 34.771875,23.9625 34.8375,24.890625 L34.8375,24.890625 L28.828125,24.88125 L28.8703125,24.6253031 C29.01375,23.8742812 29.3090625,23.274375 29.75625,22.81875 C30.253125,22.3125 30.946875,22.059375 31.8375,22.059375 Z M16.93125,17.9625 C17.79375,17.9625 18.50625,18.05625 19.059375,18.24375 C19.70625,18.515625 20.025,19.06875 20.025,19.9125 C20.025,20.671875 19.78125,21.196875 19.29375,21.496875 C18.80625,21.796875 18.16875,21.946875 17.38125,21.946875 L17.38125,21.946875 L12.99375,21.946875 L12.99375,17.9625 Z M35.521875,15.8625 L27.684375,15.8625 L27.684375,17.68125 L35.521875,17.68125 L35.521875,15.8625 Z" id="Combined-Shape" fill="#2F2F2F" fill-rule="nonzero"></path>
            <g id="Group" transform="translate(9.375000, 14.812500)"></g>
        </g>
    </g>
</svg>