<?xml version="1.0" encoding="UTF-8"?>
<svg width="48px" height="48px" viewBox="0 0 48 48" version="1.1" xmlns="http://www.w3.org/2000/svg" xmlns:xlink="http://www.w3.org/1999/xlink">
    <!-- Generator: Sketch 63.1 (92452) - https://sketch.com -->
    <title>Dribbble</title>
    <desc>Created with Sketch.</desc>
    <g id="Dribbble" stroke="none" stroke-width="1" fill="none" fill-rule="evenodd">
        <g id="dribbble" fill="#2F2F2F" fill-rule="nonzero">
            <path d="M25.34688,23.90304 C25.53792,23.83968 25.73088,23.78304 25.9248,23.7264 C25.55712,22.89408 25.15584,22.05984 24.73632,21.23616 C17.19168,23.496 9.95232,23.3328 9.69312,23.3232 C9.68832,23.48064 9.68064,23.63232 9.68064,23.78976 C9.68064,27.55488 11.10048,30.98592 13.4352,33.5808 C13.43328,33.57696 13.42944,33.57312 13.42944,33.57312 C13.42944,33.57312 17.44032,26.46048 25.34688,23.90304 Z" id="Path"></path>
            <path d="M23.52096,18.98112 C20.9856,14.47488 18.27648,10.79808 18.0816,10.53792 C13.99488,12.46752 10.94496,16.23264 9.99456,20.77056 C10.38048,20.7744 16.48608,20.8512 23.52096,18.98112 Z" id="Path"></path>
            <path d="M34.00992,12.79392 C31.42944,10.51968 28.0416,9.1392 24.33312,9.1392 C23.14272,9.1392 21.98784,9.2832 20.87904,9.55008 C21.09984,9.8448 23.85312,13.49664 26.35776,18.09888 C31.88736,16.02432 33.9744,12.84768 34.00992,12.79392 Z" id="Path"></path>
            <path d="M20.82432,9.56448 C20.80704,9.5664 20.79264,9.56832 20.77536,9.576 C20.8032,9.56832 20.82048,9.56448 20.82048,9.56448 L20.82432,9.56448 Z" id="Path"></path>
            <path d="M15.3264,35.34048 L15.32928,35.33472 C15.2208,35.25024 15.1056,35.17344 14.99904,35.0832 C15.19392,35.2416 15.3264,35.34048 15.3264,35.34048 Z" id="Path"></path>
            <path d="M27.4848,20.28096 C27.8256,20.9808 28.15392,21.6912 28.46016,22.40544 C28.56672,22.66272 28.67232,22.91328 28.77504,23.1648 C33.80928,22.5312 38.76864,23.59776 38.9808,23.64096 C38.9472,20.16672 37.704,16.97952 35.64864,14.48256 C35.61984,14.52192 33.27072,17.9184 27.4848,20.28096 Z" id="Path"></path>
            <path d="M26.82624,26.18688 C18.17856,29.20224 15.35616,35.27712 15.32928,35.33472 C17.81472,37.27488 20.93472,38.44128 24.33216,38.44128 C26.36064,38.44128 28.29408,38.02848 30.0528,37.28064 C29.83488,36 28.98432,31.51296 26.92128,26.15424 C26.89056,26.16672 26.85888,26.17632 26.82624,26.18688 Z" id="Path"></path>
            <path d="M24.33312,0.15072 C11.27712,0.15072 0.69312,10.73664 0.69312,23.79072 C0.69312,36.84672 11.27616,47.4288 24.33312,47.4288 C37.38912,47.4288 47.97312,36.84672 47.97312,23.79072 C47.97312,10.73664 37.38816,0.15072 24.33312,0.15072 Z M40.14048,30.46944 C39.71136,31.488 39.17856,32.46816 38.5584,33.38304 C37.94496,34.29216 37.24032,35.1456 36.46368,35.92224 C35.68704,36.69696 34.83456,37.4016 33.9264,38.01696 C33.0096,38.63616 32.02656,39.168 31.01088,39.59904 C29.97408,40.03584 28.89024,40.37184 27.78816,40.5984 C26.65728,40.83072 25.49472,40.9488 24.33216,40.9488 C23.1696,40.9488 22.00704,40.83072 20.87616,40.5984 C19.77408,40.37184 18.68832,40.03584 17.65344,39.59904 C16.63584,39.168 15.65376,38.6352 14.73696,38.01696 C13.82976,37.4016 12.97536,36.69696 12.19968,35.92224 C11.42304,35.1456 10.7184,34.29312 10.10496,33.38304 C9.48576,32.46816 8.95392,31.48704 8.52288,30.46944 C8.08512,29.43264 7.74816,28.3488 7.5216,27.2448 C7.29216,26.11392 7.17504,24.95328 7.17504,23.79072 C7.17504,22.62816 7.29216,21.4656 7.5216,20.33664 C7.74816,19.23264 8.08512,18.14688 8.52288,17.112 C8.95392,16.09344 9.48672,15.11136 10.10496,14.19552 C10.7184,13.2864 11.42304,12.43488 12.19968,11.65632 C12.97536,10.8816 13.8288,10.17888 14.73696,9.56352 C15.65376,8.94336 16.63584,8.41056 17.65344,7.97952 C18.68832,7.5408 19.77408,7.2048 20.87616,6.98016 C22.00704,6.74976 23.1696,6.63168 24.33216,6.63168 C25.49472,6.63168 26.65728,6.74976 27.78816,6.98016 C28.89024,7.2048 29.97408,7.5408 31.01088,7.97952 C32.02752,8.41056 33.0096,8.94336 33.9264,9.56352 C34.8336,10.17888 35.68704,10.8816 36.46368,11.65632 C37.24032,12.43488 37.94496,13.28544 38.5584,14.19552 C39.17856,15.1104 39.71136,16.09344 40.14048,17.112 C40.5792,18.14688 40.9152,19.23264 41.13984,20.33664 C41.37216,21.4656 41.49024,22.62816 41.49024,23.79072 C41.49024,24.95328 41.37216,26.11392 41.13984,27.2448 C40.9152,28.3488 40.58016,29.43264 40.14048,30.46944 Z" id="Shape"></path>
            <path d="M29.6688,25.47648 C31.59072,30.7584 32.37024,35.0592 32.52096,35.9424 C35.80992,33.72288 38.14752,30.19776 38.7984,26.11392 C38.49696,26.01696 34.39776,24.71904 29.6688,25.47648 Z" id="Path"></path>
        </g>
    </g>
</svg>