<?xml version="1.0" encoding="UTF-8"?>
<!DOCTYPE svg PUBLIC "-//W3C//DTD SVG 1.1//EN" "http://www.w3.org/Graphics/SVG/1.1/DTD/svg11.dtd">
<!-- Creator: CorelDRAW X7 -->
<?xml-stylesheet href="i.css" type="text/css"?>
<svg xmlns="http://www.w3.org/2000/svg" xml:space="preserve" width="10.936mm" height="10.9361mm" version="1.1" style="shape-rendering:geometricPrecision; text-rendering:geometricPrecision; image-rendering:optimizeQuality; fill-rule:evenodd; clip-rule:evenodd"
viewBox="0 0 64 64"
 xmlns:xlink="http://www.w3.org/1999/xlink">
 <g id="Warstwa_x0020_1">
  <metadata id="CorelCorpID_0Corel-Layer"/>
  <path class="fil0" d="M31 20l0 -4 4 0 0 4 -4 0zm0 25l0 -21 4 0 0 21 -4 0z"/>
  <path class="fil1" d="M1 32l1 0c0,-8 3,-16 9,-21 5,-6 13,-9 21,-9 8,0 16,3 21,9 6,5 9,13 9,21 0,8 -3,16 -9,21 -5,6 -13,9 -21,9 -8,0 -16,-3 -21,-9 -6,-5 -9,-13 -9,-21l-1 0 -1 0c0,18 14,32 32,32 18,0 32,-14 32,-32 0,-18 -14,-32 -32,-32 -18,0 -32,14 -32,32l1 0z"/>
 </g>
</svg>
