<?xml version="1.0" encoding="UTF-8"?>
<!DOCTYPE svg PUBLIC "-//W3C//DTD SVG 1.1//EN" "http://www.w3.org/Graphics/SVG/1.1/DTD/svg11.dtd">
<!-- Creator: CorelDRAW X7 -->
<?xml-stylesheet href="left.css" type="text/css"?>
<svg xmlns="http://www.w3.org/2000/svg" xml:space="preserve" width="10.9361mm" height="10.9361mm" version="1.1" style="shape-rendering:geometricPrecision; text-rendering:geometricPrecision; image-rendering:optimizeQuality; fill-rule:evenodd; clip-rule:evenodd"
viewBox="0 0 80 80"
 xmlns:xlink="http://www.w3.org/1999/xlink">
 <g id="Warstwa_x0020_1">
  <metadata id="CorelCorpID_0Corel-Layer"/>
  <path class="fil0" d="M28 39l20 -12 0 4 -14 9 14 8 0 4 -20 -11 0 -2z"/>
  <path class="fil0" d="M1 40l2 0c0,-10 4,-20 10,-27 7,-6 17,-10 27,-10 10,0 19,4 26,10 7,7 11,17 11,27 0,10 -4,19 -11,26 -7,7 -16,11 -26,11 -10,0 -20,-4 -27,-11 -6,-7 -10,-16 -10,-26l-2 0 -1 0c0,22 18,40 40,40 22,0 40,-18 40,-40 0,-22 -18,-40 -40,-40 -22,0 -40,18 -40,40l1 0z"/>
 </g>
</svg>
