<?xml version="1.0" encoding="utf-8"?>
<!-- Generator: Adobe Illustrator 19.1.0, SVG Export Plug-In . SVG Version: 6.00 Build 0)  -->
<svg version="1.1" id="Layer_1" xmlns="http://www.w3.org/2000/svg" xmlns:xlink="http://www.w3.org/1999/xlink" x="0px" y="0px"
	 viewBox="0 0 72 42" style="enable-background:new 0 0 72 42;" xml:space="preserve">
<style type="text/css">
	.st0{fill:#F2F2F2;}
	.st1{clip-path:url(#SVGID_2_);fill:#488ABA;}
	.st2{clip-path:url(#SVGID_4_);fill:#F97371;}
	.st3{fill:#FFFFFF;}
	.st4{fill:#FFFFFF;stroke:#FFFFFF;stroke-width:0.5;stroke-miterlimit:10;}
	.st5{fill:#555555;}
	.st6{fill:#333333;}
	.st7{clip-path:url(#SVGID_6_);fill:#488ABA;}
	.st8{opacity:0.8;fill:#488ABA;}
	.st9{fill:none;}
	.st10{clip-path:url(#SVGID_10_);fill:#488ABA;}
	.st11{fill:none;stroke:#FFFFFF;stroke-width:3;stroke-miterlimit:10;}
	.st12{fill:none;stroke:#FFFFFF;stroke-miterlimit:10;}
	.st13{fill:#555656;}
	.st14{clip-path:url(#SVGID_12_);fill:#488ABA;}
	.st15{opacity:0.95;fill:#488ABA;}
	.st16{fill:none;stroke:#FFFFFF;stroke-width:4;stroke-miterlimit:10;}
	.st17{fill:none;stroke:#FFFFFF;stroke-width:2;stroke-miterlimit:10;}
	.st18{fill:none;stroke:#FF0000;stroke-width:2;stroke-miterlimit:10;}
	.st19{fill:#FF0000;}
	.st20{fill:#FFFFFF;stroke:#FFFFFF;stroke-miterlimit:10;}
	.st21{opacity:0.9;fill:#FFFFFF;}
	.st22{fill:none;stroke:#555656;stroke-miterlimit:10;}
	.st23{opacity:0.1;fill:none;stroke:#555656;stroke-width:2;stroke-miterlimit:10;}
</style>
<g>
	<g>
		<path class="st5" d="M27.9,13.3c0-5.8-4.6-11.9-11-11.9H0.9v39.1H2v-5.8h0V23.3h0V2.6l14.5,22.6l0,0.1l9.9,15.4h1.3l-9.9-15.4
			C23.8,24.8,27.9,19.4,27.9,13.3z M26.8,13.3c0,5.4-3.6,10.8-9.5,10.8l0,0L3.3,2.6h13.5C22.4,2.6,26.8,7.8,26.8,13.3z"/>
		<path class="st5" d="M69.9,22h-8.4h-6.9l-11-17.1c2.6-1.7,5.7-2.7,9-2.7c5.9,0,11,3.2,14.2,8h1.3C64.8,4.6,59.1,1,52.6,1
			c-10.2,0-18.5,9-18.5,20c0,11,8.3,20,18.5,20c9.9,0,18-8.4,18.5-19H69.9z M52.6,39.9c-9.6,0-17.4-8.5-17.4-18.9
			c0-6.4,3-12.1,7.5-15.5l19.9,30.9C59.8,38.6,56.3,39.9,52.6,39.9z M63.5,35.7l-8.1-12.6h14.5C69.3,28.2,67,32.7,63.5,35.7z"/>
	</g>
</g>
</svg>
