<?xml version="1.0" encoding="UTF-8"?>
<!DOCTYPE svg PUBLIC "-//W3C//DTD SVG 1.1//EN" "http://www.w3.org/Graphics/SVG/1.1/DTD/svg11.dtd">
<!-- Creator: CorelDRAW X7 -->
<?xml-stylesheet href="right.css" type="text/css"?>
<svg xmlns="http://www.w3.org/2000/svg" xml:space="preserve" width="10.9361mm" height="10.9361mm" version="1.1" style="shape-rendering:geometricPrecision; text-rendering:geometricPrecision; image-rendering:optimizeQuality; fill-rule:evenodd; clip-rule:evenodd"
viewBox="0 0 105 105"
 xmlns:xlink="http://www.w3.org/1999/xlink">
 <g id="Warstwa_x0020_1">
  <metadata id="CorelCorpID_0Corel-Layer"/>
  <path class="fil0" d="M68 54l-26 16 0 -6 18 -11 -18 -11 0 -6 26 15 0 3z"/>
  <path class="fil0" d="M103 52l-1 0c0,14 -6,26 -15,35 -9,9 -21,15 -35,15 -13,0 -25,-6 -34,-15 -9,-9 -15,-21 -15,-35 0,-13 6,-25 15,-34 9,-9 21,-15 34,-15 14,0 26,6 35,15 9,9 15,21 15,34l1 0 2 0c0,-29 -24,-52 -53,-52 -29,0 -52,23 -52,52 0,29 23,53 52,53 29,0 53,-24 53,-53l-2 0z"/>
 </g>
</svg>
